<svg width="37" height="37" viewBox="0 0 37 37" fill="none" xmlns="http://www.w3.org/2000/svg">
<path d="M27.3092 0.629791H8.46804C3.82265 0.629791 0.0568237 4.43115 0.0568237 9.12036V28.1392C0.0568237 32.8284 3.82265 36.6298 8.46804 36.6298H27.3092C31.9545 36.6298 35.7204 32.8284 35.7204 28.1392V9.12036C35.7204 4.43115 31.9545 0.629791 27.3092 0.629791Z" fill="#00B1FD"/>
<path d="M11.1808 25.2606C10.7026 25.2606 10.3002 25.1723 9.97363 24.9957C9.65872 24.8309 9.50126 24.566 9.50126 24.201C9.50126 24.0361 9.55375 23.8831 9.65872 23.7418C9.76369 23.6005 9.96778 23.4828 10.2711 23.3886C10.2711 23.471 10.2652 23.5417 10.2536 23.6005C10.2536 23.6594 10.2536 23.7359 10.2536 23.8301C10.2536 24.0891 10.3177 24.3246 10.446 24.5365C10.5743 24.7484 10.8425 24.8544 11.2508 24.8544C11.8106 24.8544 12.3238 24.6483 12.7904 24.2363C13.2686 23.836 13.7001 23.3003 14.085 22.6292C14.4699 21.9581 14.7965 21.2222 15.0648 20.4216C15.3447 19.6093 15.5605 18.8028 15.7121 18.0022C15.3505 18.3672 14.9073 18.6497 14.3825 18.8499C13.8692 19.05 13.3444 19.1501 12.8079 19.1501C12.213 19.1501 11.659 19.0265 11.1458 18.7792C10.6443 18.5202 10.2419 18.1258 9.93864 17.596C9.63537 17.0662 9.48376 16.3892 9.48376 15.565C9.48376 14.7056 9.66454 13.9344 10.0261 13.2515C10.3993 12.5569 10.9125 12.0094 11.5657 11.6091C12.2305 11.2088 12.9945 11.0087 13.8576 11.0087C14.7674 11.0087 15.4963 11.2206 16.0445 11.6444C16.5927 12.0565 16.9834 12.6158 17.2167 13.3222C17.4616 14.0168 17.5841 14.788 17.5841 15.6357C17.5841 16.4363 17.485 17.2781 17.2867 18.1611C17.1001 19.0441 16.8259 19.9095 16.4644 20.7572C16.1028 21.5931 15.6596 22.3525 15.1348 23.0354C14.6215 23.7065 14.0325 24.2422 13.3677 24.6425C12.7029 25.0545 11.9739 25.2606 11.1808 25.2606ZM13.2977 18.5496C14.2308 18.5496 14.9073 18.2612 15.3272 17.6843C15.7587 17.1074 15.9745 16.3598 15.9745 15.4414C15.9745 15.0058 15.9395 14.5643 15.8696 14.1169C15.8112 13.6577 15.7004 13.2397 15.5371 12.863C15.3855 12.4745 15.1639 12.1625 14.8723 11.927C14.5924 11.6915 14.2308 11.5738 13.7876 11.5738C13.3561 11.5738 12.9653 11.6974 12.6154 11.9447C12.2772 12.1801 11.9856 12.498 11.7407 12.8983C11.5074 13.2868 11.3266 13.7225 11.1983 14.2052C11.07 14.6879 11.0059 15.1765 11.0059 15.671C11.0059 16.3421 11.1108 16.8896 11.3208 17.3134C11.5424 17.7373 11.8281 18.0493 12.178 18.2494C12.528 18.4496 12.9012 18.5496 13.2977 18.5496ZM21.0903 25.2606C20.612 25.2606 20.2096 25.1723 19.8831 24.9957C19.5682 24.8309 19.4107 24.566 19.4107 24.201C19.4107 24.0361 19.4632 23.8831 19.5682 23.7418C19.6731 23.6005 19.8772 23.4828 20.1805 23.3886C20.1805 23.471 20.1747 23.5417 20.163 23.6005C20.163 23.6594 20.163 23.7359 20.163 23.8301C20.163 24.0891 20.2271 24.3246 20.3555 24.5365C20.4837 24.7484 20.752 24.8544 21.1602 24.8544C21.7201 24.8544 22.2333 24.6483 22.6998 24.2363C23.178 23.836 23.6096 23.3003 23.9945 22.6292C24.3794 21.9581 24.7059 21.2222 24.9742 20.4216C25.2542 19.6093 25.4699 18.8028 25.6216 18.0022C25.26 18.3672 24.8168 18.6497 24.2919 18.8499C23.7787 19.05 23.2538 19.1501 22.7173 19.1501C22.1225 19.1501 21.5685 19.0265 21.0553 18.7792C20.5537 18.5202 20.1513 18.1258 19.8481 17.596C19.5448 17.0662 19.3932 16.3892 19.3932 15.565C19.3932 14.7056 19.574 13.9344 19.9356 13.2515C20.3088 12.5569 20.822 12.0094 21.4752 11.6091C22.14 11.2088 22.9039 11.0087 23.7671 11.0087C24.6768 11.0087 25.4058 11.2206 25.954 11.6444C26.5021 12.0565 26.8929 12.6158 27.1262 13.3222C27.3711 14.0168 27.4936 14.788 27.4936 15.6357C27.4936 16.4363 27.3944 17.2781 27.1961 18.1611C27.0095 19.0441 26.7354 19.9095 26.3739 20.7572C26.0123 21.5931 25.5691 22.3525 25.0442 23.0354C24.531 23.7065 23.942 24.2422 23.2772 24.6425C22.6124 25.0545 21.8834 25.2606 21.0903 25.2606ZM23.2072 18.5496C24.1403 18.5496 24.8168 18.2612 25.2367 17.6843C25.6682 17.1074 25.884 16.3598 25.884 15.4414C25.884 15.0058 25.849 14.5643 25.779 14.1169C25.7207 13.6577 25.6099 13.2397 25.4466 12.863C25.295 12.4745 25.0733 12.1625 24.7818 11.927C24.5019 11.6915 24.1403 11.5738 23.6971 11.5738C23.2655 11.5738 22.8748 11.6974 22.5249 11.9447C22.1866 12.1801 21.8951 12.498 21.6501 12.8983C21.4168 13.2868 21.236 13.7225 21.1078 14.2052C20.9794 14.6879 20.9153 15.1765 20.9153 15.671C20.9153 16.3421 21.0203 16.8896 21.2302 17.3134C21.4518 17.7373 21.7376 18.0493 22.0875 18.2494C22.4374 18.4496 22.8106 18.5496 23.2072 18.5496Z" fill="white"/>
</svg>
