<svg width="36" height="37" viewBox="0 0 36 37" fill="none" xmlns="http://www.w3.org/2000/svg">
<path d="M25.5 3.62979H10.5C6.35786 3.62979 3 6.98766 3 11.1298V26.1298C3 30.2719 6.35786 33.6298 10.5 33.6298H25.5C29.6421 33.6298 33 30.2719 33 26.1298V11.1298C33 6.98766 29.6421 3.62979 25.5 3.62979Z" stroke="#00B1FD" stroke-width="2" stroke-linecap="round" stroke-linejoin="round"/>
<path d="M24 17.6848C24.1851 18.9332 23.9719 20.2081 23.3906 21.3283C22.8094 22.4485 21.8897 23.3569 20.7624 23.9243C19.6352 24.4917 18.3577 24.6892 17.1117 24.4887C15.8657 24.2882 14.7146 23.6999 13.8223 22.8075C12.9299 21.9152 12.3416 20.7641 12.1411 19.5181C11.9406 18.2721 12.1381 16.9946 12.7055 15.8674C13.2729 14.7401 14.1813 13.8204 15.3015 13.2392C16.4217 12.6579 17.6966 12.4447 18.945 12.6298C20.2184 12.8186 21.3973 13.412 22.3075 14.3223C23.2178 15.2325 23.8112 16.4114 24 17.6848Z" stroke="#00B1FD" stroke-width="2" stroke-linecap="round" stroke-linejoin="round"/>
<path d="M26.25 10.3798H26.265" stroke="#00B1FD" stroke-width="2" stroke-linecap="round" stroke-linejoin="round"/>
</svg>
